<?xml version="1.0" standalone="no"?>
<!DOCTYPE svg PUBLIC "-//W3C//DTD SVG 20010904//EN"
 "http://www.w3.org/TR/2001/REC-SVG-20010904/DTD/svg10.dtd">
<svg version="1.0" xmlns="http://www.w3.org/2000/svg"
 width="1024.000000pt" height="1024.000000pt" viewBox="0 0 1024.000000 1024.000000"
 preserveAspectRatio="xMidYMid meet">

<g transform="translate(0.000000,1024.000000) scale(0.100000,-0.100000)"
fill="#000000" stroke="none">
<path d="M5051 9523 c-19 -9 -85 -66 -147 -126 -498 -479 -940 -1174 -1229
-1932 -148 -390 -261 -869 -309 -1310 -33 -298 -38 -431 -43 -1065 -8 -1019
18 -1644 98 -2340 20 -177 75 -586 84 -628 4 -18 0 -25 -22 -33 -43 -16 -82
-59 -89 -97 -7 -37 7 -287 32 -566 16 -184 30 -228 83 -265 45 -33 119 -43
274 -39 130 3 146 5 186 28 76 43 86 65 86 186 l0 104 1064 -2 1064 -3 -2 -86
c-3 -100 11 -142 58 -181 46 -39 115 -51 286 -46 171 4 215 18 255 83 25 41
38 144 66 537 21 290 19 299 -61 338 -38 18 -46 26 -41 44 11 48 59 372 86
592 83 659 109 1199 110 2209 0 826 -27 1207 -121 1680 -176 888 -602 1771
-1204 2490 -119 142 -366 394 -415 424 -42 25 -102 27 -149 4z m262 -2478
c228 -40 452 -164 620 -345 171 -185 282 -401 342 -670 48 -216 50 -252 50
-1135 0 -829 0 -830 -22 -900 -44 -140 -154 -268 -284 -330 -139 -67 -134 -66
-929 -63 l-715 4 -63 23 c-35 13 -85 35 -110 49 -72 39 -172 146 -210 224 -62
127 -62 121 -62 1010 0 859 3 915 51 1132 120 538 479 915 953 1001 98 18 277
18 379 0z"/>
<path d="M4793 6226 c-102 -20 -166 -42 -266 -94 -148 -78 -258 -195 -331
-354 -66 -144 -66 -142 -66 -906 0 -757 -1 -746 62 -844 40 -63 89 -105 168
-142 l65 -31 701 0 700 0 76 38 c91 45 156 111 190 195 l23 57 0 745 0 745
-32 84 c-96 248 -299 424 -568 493 -69 18 -118 21 -365 24 -210 2 -304 0 -357
-10z"/>
</g>
</svg>
